<svg width="16" height="16" viewBox="0 0 16 16" fill="none" xmlns="http://www.w3.org/2000/svg">
<path id="Vector" d="M2.3865 0.392699L8.00064 6.00684L13.5857 0.421788C13.7091 0.290477 13.8577 0.185433 14.0226 0.112955C14.1876 0.0404768 14.3655 0.00205708 14.5456 0C14.9314 0 15.3013 0.153235 15.5741 0.425996C15.8468 0.698756 16.0001 1.0687 16.0001 1.45444C16.0035 1.63276 15.9704 1.80989 15.9028 1.97496C15.8353 2.14003 15.7348 2.28956 15.6074 2.41437L9.94959 7.99943L15.6074 13.6572C15.8471 13.8917 15.9876 14.2093 16.0001 14.5444C16.0001 14.9302 15.8468 15.3001 15.5741 15.5729C15.3013 15.8456 14.9314 15.9989 14.5456 15.9989C14.3603 16.0065 14.1753 15.9756 14.0026 15.908C13.8298 15.8404 13.673 15.7376 13.5421 15.6062L8.00064 9.99201L2.40104 15.5916C2.27815 15.7185 2.13134 15.8199 1.96907 15.8898C1.80681 15.9597 1.63232 15.9967 1.45565 15.9989C1.06991 15.9989 0.69997 15.8456 0.427209 15.5729C0.154448 15.3001 0.00121321 14.9302 0.00121321 14.5444C-0.00217781 14.3661 0.0309062 14.189 0.0984352 14.0239C0.165964 13.8588 0.266514 13.7093 0.393912 13.5845L6.05169 7.99943L0.393912 2.34165C0.154198 2.10713 0.0136336 1.78956 0.00121321 1.45444C0.00121321 1.0687 0.154448 0.698756 0.427209 0.425996C0.69997 0.153235 1.06991 0 1.45565 0C1.80472 0.00436332 2.13924 0.145444 2.3865 0.392699Z" fill="#818181"/>
</svg>
