<svg width="36" height="36" viewBox="0 0 36 36" fill="none" xmlns="http://www.w3.org/2000/svg">
<g id="linkedin logo" clip-path="url(#clip0_186_3582)">
<rect width="36" height="36" fill="#007AB9"/>
<g id="Group">
<path id="Vector" d="M18 36C27.9411 36 36 27.9411 36 18C36 8.05888 27.9411 0 18 0C8.05888 0 0 8.05888 0 18C0 27.9411 8.05888 36 18 36Z" fill="#007AB9"/>
<g id="Group_2">
<path id="Vector_2" d="M28.7551 19.4486V26.8696H24.4526V19.946C24.4526 18.2075 23.8314 17.0203 22.2736 17.0203C21.0848 17.0203 20.3786 17.8196 20.0667 18.5935C19.9534 18.8701 19.9242 19.2542 19.9242 19.6421V26.8693H15.6214C15.6214 26.8693 15.6792 15.1429 15.6214 13.9291H19.9246V15.7628C19.9159 15.7773 19.9037 15.7914 19.896 15.8052H19.9246V15.7628C20.4963 14.883 21.5161 13.6252 23.8022 13.6252C26.6329 13.6252 28.7551 15.4747 28.7551 19.4486ZM11.1203 7.69141C9.64847 7.69141 8.68555 8.65754 8.68555 9.92689C8.68555 11.1693 9.62055 12.1633 11.0638 12.1633H11.0917C12.5924 12.1633 13.5255 11.1693 13.5255 9.92689C13.4969 8.65754 12.5924 7.69141 11.1203 7.69141ZM8.94128 26.8696H13.2425V13.9291H8.94128V26.8696Z" fill="#F1F2F2"/>
</g>
</g>
</g>
<defs>
<clipPath id="clip0_186_3582">
<rect width="36" height="36" fill="white"/>
</clipPath>
</defs>
</svg>
