<svg width="20" height="20" viewBox="0 0 20 20" fill="none" xmlns="http://www.w3.org/2000/svg">
<g id="Frame">
<g id="Group">
<path id="Vector" d="M5.7153 7.14235H11.4296M5.7153 10.7138H11.4296M5.7153 14.2852H8.57244M12.8582 3.57092H4.28673C3.90785 3.57092 3.54448 3.72143 3.27657 3.98934C3.00866 4.25725 2.85815 4.62061 2.85815 4.99949V17.8566C2.85815 18.2355 3.00866 18.5989 3.27657 18.8668C3.54448 19.1347 3.90785 19.2852 4.28673 19.2852H12.8582C13.237 19.2852 13.6004 19.1347 13.8683 18.8668C14.1362 18.5989 14.2867 18.2355 14.2867 17.8566V4.99949C14.2867 4.62061 14.1362 4.25725 13.8683 3.98934C13.6004 3.72143 13.237 3.57092 12.8582 3.57092Z" stroke="white" stroke-width="0.857143" stroke-linecap="round" stroke-linejoin="round"/>
<path id="Vector_2" d="M6.4292 0.714478H15.7149C16.0938 0.714478 16.4572 0.864987 16.7251 1.1329C16.993 1.40081 17.1435 1.76417 17.1435 2.14305V15.7145" stroke="white" stroke-width="0.857143" stroke-linecap="round" stroke-linejoin="round"/>
</g>
</g>
</svg>
