<svg xmlns="http://www.w3.org/2000/svg" width="44" height="15" viewBox="0 0 44 15" fill="none">
  <g clip-path="url(#clip0_186_3248)">
    <path fill-rule="evenodd" clip-rule="evenodd" d="M8.5365 9.04186C8.4622 7.2883 7.20663 5.29084 4.72664 5.29084C2.487 5.2881 0.332031 7.42452 0.332031 10.2685C0.332031 13.1125 2.42418 14.9894 4.96699 14.9894C6.32588 14.9894 7.66357 14.2999 8.50729 12.9785C8.52935 12.9439 8.5232 12.8985 8.49308 12.8707L8.33326 12.7233C8.29601 12.6889 8.23724 12.6943 8.20625 12.7344C7.63238 13.4771 6.896 14.095 6.09182 14.1843C2.69547 14.5614 2.51817 11.764 2.51817 10.2685H8.1274C8.36367 10.2685 8.55566 10.077 8.55438 9.84075C8.55286 9.56114 8.54859 9.26354 8.5365 9.04186ZM4.68868 5.90607C5.83035 5.90607 6.69309 7.10836 6.75591 8.64101C6.77498 9.01365 6.78209 9.20662 6.78473 9.37285C6.78736 9.53822 6.65222 9.67229 6.48684 9.67229H2.50781C2.50774 9.33935 2.55161 8.87313 2.57468 8.64101C2.74675 6.91712 3.56613 5.90607 4.68595 5.90607H4.68868Z" fill="white"/>
    <path d="M13.9332 13.8692C12.9636 13.8692 12.5102 13.1152 12.5102 12.0797V6.19503H15.3343L15.3234 5.65136H12.7344C12.6165 5.65136 12.5209 5.55599 12.5205 5.43811L12.5129 2.94122H12.3409C11.9749 4.22526 10.9097 5.59399 9.12891 5.87265V6.17317H10.2706L10.205 12.4048C10.205 13.9348 11.3467 14.992 12.8134 14.992C14.0617 14.992 15.0605 14.3482 15.7477 13.2666C15.7708 13.2303 15.7626 13.1823 15.7291 13.1553L15.5356 12.9995C15.4974 12.9688 15.4413 12.9765 15.4119 13.0156C14.9777 13.5919 14.5551 13.8692 13.9359 13.8692H13.9332Z" fill="white"/>
    <path d="M31.3123 5.28693C28.9634 5.28693 26.6992 7.2485 26.6992 10.1389C26.6992 13.0294 28.9634 14.991 31.3123 14.991C33.6612 14.991 35.9254 13.0075 35.9254 10.1389C35.9254 7.27035 33.6612 5.28693 31.3123 5.28693ZM31.3123 14.4063C29.9767 14.4063 29.07 12.983 29.07 10.1362C29.07 7.28948 29.974 5.84699 31.3123 5.84699C32.6506 5.84699 33.5547 7.27035 33.5547 10.1362C33.5547 13.0021 32.6506 14.4063 31.3123 14.4063Z" fill="white"/>
    <path d="M41.5755 9.40677L40.1307 8.65274C39.3768 8.28666 38.8579 7.92057 38.8579 7.20752C38.8579 6.40978 39.396 5.84972 40.3027 5.84972C41.4239 5.84972 42.4423 6.70337 42.7243 8.14159C42.733 8.18599 42.7741 8.21714 42.819 8.21207L43.0509 8.18594C43.0942 8.18106 43.127 8.14445 43.1256 8.10093C43.1213 7.96535 43.1057 7.83037 43.0804 7.69928C42.9985 7.27035 42.8128 6.86875 42.5724 6.4972C42.4386 6.28957 42.2829 6.0956 42.0999 5.92894C41.936 5.77869 41.7421 5.64209 41.5345 5.56286C41.1877 5.42899 40.7452 5.28693 40.1962 5.28693C38.4946 5.28693 37.0935 6.40704 37.0935 8.08995C37.0935 9.31935 37.8473 10.0734 38.8606 10.5897L40.4775 11.4312C41.2969 11.8628 41.8131 12.1852 41.8131 12.9392C41.8131 13.8872 41.1658 14.3845 40.1525 14.3845C38.6886 14.3845 37.5602 13.2166 37.318 11.6812C37.3111 11.6373 37.2725 11.605 37.2281 11.6073L36.9494 11.6214C36.9077 11.6235 36.875 11.6579 36.875 11.6997C36.9406 12.8853 37.4568 14.0375 38.5575 14.6003C39.0655 14.8598 39.6445 14.9882 40.2153 14.9882C42.0917 14.9882 43.5338 13.7807 43.5338 12.0787C43.5338 10.7427 42.6707 9.98596 41.5728 9.40404L41.5755 9.40677Z" fill="white"/>
    <path d="M24.7292 14.7747C24.9859 14.7747 25.1935 14.5671 25.1935 14.3103V13.4524C25.188 13.3623 25.1853 13.2666 25.1853 13.1574V8.43648C25.1853 6.71259 24.2812 5.28923 22.3175 5.28923C20.9464 5.28923 19.8648 6.30006 19.4141 7.17157C19.4059 7.18796 19.3841 7.17976 19.3841 7.16337V0.775974C19.3841 0.775974 19.3759 0.759583 19.3677 0.759583H17.5924C17.3056 0.759583 17.0734 0.991802 17.0734 1.27866L17.0625 14.7556C17.0625 14.7556 17.0707 14.772 17.0789 14.772H18.9307C19.1874 14.772 19.395 14.5643 19.395 14.3075L19.3868 7.70431C19.3868 7.70431 19.3868 7.69884 19.3868 7.69611C19.7528 6.98579 20.3783 6.51316 21.1294 6.51316C22.2492 6.51316 22.8965 7.24533 22.8965 8.79984L22.8883 14.7556C22.8883 14.7556 22.8965 14.772 22.9047 14.772H24.7264L24.7292 14.7747Z" fill="white"/>
  </g>
  <defs>
    <clipPath id="clip0_186_3248">
      <rect width="43.3889" height="14.2309" fill="white" transform="translate(0.332031 0.759583)"/>
    </clipPath>
  </defs>
</svg>